<svg xmlns="http://www.w3.org/2000/svg" width="3000" height="2000" style="width:100%;height:100%;transform:translate3d(0,0,0);content-visibility:visible" viewBox="0 0 3000 2000"><defs><clipPath id="a"><path d="M0 0h3000v2000H0z"/></clipPath><clipPath id="e"><path d="M0 0h295v313H0z"/></clipPath><clipPath id="d"><path d="M0 0h295v313H0z"/></clipPath><clipPath id="c"><path d="M0 0h295v313H0z"/></clipPath><clipPath id="b"><path d="M0 0h414v453H0z"/></clipPath></defs><g clip-path="url(#a)"><g style="display:block"><path fill="#FFF" d="m1062.039 296.28 59.767 155.699c5.501 14.331-1.658 30.41-15.989 35.91l-155.699 59.768c-14.331 5.501-30.41-1.657-35.91-15.989L854.44 375.97c-5.501-14.331 1.657-30.41 15.989-35.91l155.699-59.768c14.33-5.501 30.41 1.657 35.91 15.989z"/><path fill="none" stroke="#121331" stroke-linecap="round" stroke-linejoin="round" stroke-width="7.754" d="m1062.039 296.28 59.767 155.699c5.501 14.331-1.658 30.41-15.989 35.91l-155.699 59.768c-14.331 5.501-30.41-1.657-35.91-15.989L854.44 375.97c-5.501-14.331 1.657-30.41 15.989-35.91l155.699-59.768c14.33-5.501 30.41 1.657 35.91 15.989z"/><path fill="none" stroke="#121331" stroke-linecap="round" stroke-linejoin="round" stroke-width="10" d="m1003.355 478.843-.068-.178"/><path fill="none" stroke="#121331" stroke-linecap="round" stroke-linejoin="round" stroke-width="7.754" d="M942.685 372.025s2.928-13.568 19.557-19.951c14.19-5.448 32.896 1.11 39.529 18.388 7.709 20.081-8.216 36.013-13.654 49.016-5.28 12.625 1.21 25.528 2.202 27.374"/></g><path fill="#C0F7E6" d="M690.671 0c0 381.447-309.224 690.671-690.671 690.671-381.447 0-690.671-309.224-690.671-690.671 0-381.447 309.224-690.671 690.671-690.671 381.447 0 690.671 309.224 690.671 690.671z" style="display:block" transform="translate(2045.188 1307.663)"/><g clip-path="url(#b)" style="display:block" transform="rotate(30 144.956 3884.196)"><g style="display:block"><path fill="#121331" d="m312.639 391.902-215.236.525-.066-231.899S96.004 52.263 206.005 52.263c90.995 0 106.568 107.741 106.568 107.741l.066 231.898z"/><path fill="none" stroke="#121331" stroke-linecap="round" stroke-linejoin="round" stroke-width="7.754" d="m312.639 391.902-215.236.525-.066-231.899S96.004 52.263 206.005 52.263c90.995 0 106.568 107.741 106.568 107.741l.066 231.898z"/></g><g style="display:block"><path fill="#FFF" d="m275.932 374.986-125.242.046-.084-229.722 125.242-.046.084 229.722z"/><path fill="none" stroke="#121331" stroke-linecap="round" stroke-linejoin="round" stroke-width="7.754" d="m275.932 374.986-125.242.046-.084-229.722 125.242-.046.084 229.722z"/></g><g style="display:block"><path fill="#FFF" d="M128.59 212.528c.049 3.507.307 7.017.971 10.461 5.371 27.868 29.862 48.56 58.887 48.549l27.381-.01 8.218-.003c28.637-.01 51.862-23.2 51.915-51.837l.061-32.525-2.709-61.636-.855-44.294c-.312-16.178-13.935-29.133-30.628-29.127l-79.882.029c-16.355.006-29.818 12.469-30.578 28.305l-3.647 32.838a66.764 66.764 0 0 0-.402 8.316l1.268 90.934z"/><path fill="none" stroke="#121331" stroke-linecap="round" stroke-linejoin="round" stroke-width="7.754" d="M128.59 212.528c.049 3.507.307 7.017.971 10.461 5.371 27.868 29.862 48.56 58.887 48.549l27.381-.01 8.218-.003c28.637-.01 51.862-23.2 51.915-51.837l.061-32.525-2.709-61.636-.855-44.294c-.312-16.178-13.935-29.133-30.628-29.127l-79.882.029c-16.355.006-29.818 12.469-30.578 28.305l-3.647 32.838a66.764 66.764 0 0 0-.402 8.316l1.268 90.934z"/></g><path fill="none" stroke="#121331" stroke-linecap="round" stroke-linejoin="round" stroke-width="7.754" d="m-3.11-11.521.008 19.544 6.212 3.498" style="display:block" transform="translate(196.553 159.836)"/><g style="display:block"><path fill="#121331" d="m97.323 126.271 104.859-.038 11.286-28.245 8.605 28.237 75.882-.028c-.019-53.165-43.134-96.247-96.299-96.228h-.787c-39.446.014-74.892 24.093-89.441 60.758l-14.105 35.544z"/><path fill="none" stroke="#121331" stroke-linecap="round" stroke-linejoin="round" stroke-width="7.754" d="m97.323 126.271 104.859-.038 11.286-28.245 8.605 28.237 75.882-.028s0 0 0 0c-.019-53.165-43.134-96.247-96.299-96.228h-.787c-39.446.014-74.892 24.093-89.441 60.758l-14.105 35.544z"/></g><g style="display:block"><path fill="#FFF" d="m261.606 131.047 28.711-15.263c11.729-6.662 26.82-2.682 33.449 8.836a22.819 22.819 0 0 1 3.068 11.42c.002 6.719-2.957 13.328-8.521 17.933l-50.72 39.247-5.987-62.173z"/><path fill="none" stroke="#121331" stroke-linecap="round" stroke-linejoin="round" stroke-width="7.754" d="m261.606 131.047 28.711-15.263c11.729-6.662 26.82-2.682 33.449 8.836a22.819 22.819 0 0 1 3.068 11.42c.002 6.719-2.957 13.328-8.521 17.933l-50.72 39.247-5.987-62.173z"/></g><g style="display:block"><path fill="#FFF" d="m152.01 136.079-38.94-20.23c-11.734-6.653-26.822-2.663-33.443 8.86a22.822 22.822 0 0 0-3.059 11.423c.002 6.719 2.966 13.326 8.534 17.927l55.211 42.137 11.697-60.117z"/><path fill="none" stroke="#121331" stroke-linecap="round" stroke-linejoin="round" stroke-width="7.754" d="m152.01 136.079-38.94-20.23c-11.734-6.653-26.822-2.663-33.443 8.86a22.822 22.822 0 0 0-3.059 11.423c.002 6.719 2.966 13.326 8.534 17.927l55.211 42.137 11.697-60.117z"/></g><path fill="#FFF" d="m35.433-36.17-.828 65.859-70.038 6.481 5.241-71.039 65.625-1.301z" style="display:block" transform="translate(237.004 248.227)"/><path fill="#FFF" d="m-20.407 24.081-.024-64.015 40.862.758-2.492 74.447-37.522 4.663-.824-15.853z" style="display:block" transform="translate(151.848 169.188)"/><path fill="#FFF" d="m-19.502-36.374 39.004-.259-5.657 66.921-17.022 6.345-16.325-73.007z" style="display:block" transform="translate(258.2 166.503)"/><path fill="none" stroke="#121331" stroke-linecap="round" stroke-linejoin="round" stroke-width="7.754" d="M13.83-9.172-13.83 9.172" style="display:block" transform="translate(288.603 145.196)"/><path fill="none" stroke="#121331" stroke-linecap="round" stroke-linejoin="round" stroke-width="7.754" d="M-13.836-9.162 13.836 9.162" style="display:block" transform="translate(114.806 145.26)"/><g style="display:block"><path fill="#121331" d="M223.766 184.309a1.762 1.762 0 1 0 3.471-.609 1.762 1.762 0 0 0-3.471.609z"/><path fill="none" stroke="#121331" stroke-linecap="round" stroke-linejoin="round" stroke-width="7.754" d="M223.766 184.309a1.762 1.762 0 1 0 3.471-.609 1.762 1.762 0 0 0-3.471.609z"/></g><g style="display:block"><path fill="#121331" d="M226.325 146.6a1.762 1.762 0 1 0 3.471-.609 1.762 1.762 0 0 0-3.471.609z"/><path fill="none" stroke="#121331" stroke-linecap="round" stroke-linejoin="round" stroke-width="7.754" d="M226.325 146.6a1.762 1.762 0 1 0 3.471-.609 1.762 1.762 0 0 0-3.471.609z"/><path fill="#121331" d="M159.241 146.204a1.764 1.764 0 1 1-3.475-.609 1.764 1.764 0 0 1 3.475.609z"/><path fill="none" stroke="#121331" stroke-linecap="round" stroke-linejoin="round" stroke-width="7.754" d="M159.241 146.204a1.764 1.764 0 1 1-3.475-.609 1.764 1.764 0 0 1 3.475.609z"/></g><path fill="none" stroke="#121331" stroke-linecap="round" stroke-linejoin="round" stroke-width="7.754" d="M-8.916.003 8.916-.003" style="display:block" transform="translate(204.965 271.532)"/></g><path fill="none" stroke="#121331" stroke-linecap="round" stroke-linejoin="round" stroke-width="7.754" d="m159.917-155.003-56.891-12.885C-.672-191.374-105.991-135.664-144.931-36.727v.001c-28.319 71.951-15.412 151.385 29.503 209.961" style="display:block" transform="translate(1695.213 759.509)"/><g style="display:block"><path fill="#FFF" d="M1245.176 1200.37c46.313-50.809 55.607-127.987 17.825-189.5-45.767-74.514-143.273-97.818-217.787-52.051-21.912 13.458-39.39 31.395-51.991 51.902l-273.122 352.552 244.52 142.003 279.639-303.912c.306-.33.611-.661.914-.993l.002-.001z"/><path fill="none" stroke="#121331" stroke-linecap="round" stroke-linejoin="round" stroke-width="7.754" d="M1245.176 1200.37s0 0 0 0c46.313-50.809 55.607-127.987 17.825-189.5-45.767-74.514-143.273-97.818-217.787-52.051-21.912 13.458-39.39 31.395-51.991 51.902 0 0 0 0 0 0l-273.122 352.552 244.52 142.003 279.639-303.912c.306-.33.611-.661.914-.993l.002-.001z"/><path fill="#FFF" d="m763.09 1689.273-342.47-103.739c-29.101-8.815-43.194-41.764-29.468-68.897a48.914 48.914 0 0 1 33.139-25.693l214.311-47.146a59.647 59.647 0 0 0 33.746-20.973l92.256-115.21 255.161 139.779-181.591 218.271c-17.786 22.57-47.583 31.939-75.084 23.608z"/><path fill="none" stroke="#121331" stroke-linecap="round" stroke-linejoin="round" stroke-width="7.754" d="m763.09 1689.273-342.47-103.739c-29.101-8.815-43.194-41.764-29.468-68.897 0 0 0 0 0 0a48.914 48.914 0 0 1 33.139-25.693l214.311-47.146a59.647 59.647 0 0 0 33.746-20.973l92.256-115.21 255.161 139.779-181.591 218.271c-17.786 22.57-47.583 31.939-75.084 23.608z"/></g><g style="display:block"><path fill="#FFF" d="M1301.872 809.004c0-120.973-123.163-178.931-227.272-145.222-90.556 29.32-181.55 57.729-272.308 86.573-64.917 20.633-106.862 35.88-171.78 56.512l111.063 254.36 428.682-96.144c74.72-12.701 131.614-77.74 131.615-156.08z"/><path fill="none" stroke="#121331" stroke-linecap="round" stroke-linejoin="round" stroke-width="7.754" d="M1301.872 809.004c0-120.973-123.163-178.931-227.272-145.222-90.556 29.32-181.55 57.729-272.308 86.573-64.917 20.633-106.862 35.88-171.78 56.512l111.063 254.36 428.682-96.144c74.72-12.701 131.614-77.74 131.615-156.08z"/><path fill="#FFF" d="M472.763 1113.683 235.236 846.047c-20.184-22.742-14.948-58.194 10.949-74.13a48.917 48.917 0 0 1 41.685-4.55l207.291 71.992a59.644 59.644 0 0 0 39.73-.21l149.208-48.922 104.353 261.7-239.355 80.936c-26.967 9.923-57.26 2.312-76.334-19.18z"/><path fill="none" stroke="#121331" stroke-linecap="round" stroke-linejoin="round" stroke-width="7.754" d="M472.763 1113.683 235.236 846.047c-20.184-22.742-14.948-58.194 10.949-74.13 0 0 0 0 0 0a48.917 48.917 0 0 1 41.685-4.55l207.291 71.992a59.644 59.644 0 0 0 39.73-.21l149.208-48.922 104.353 261.7-239.355 80.936c-26.967 9.923-57.26 2.312-76.334-19.18z"/></g><g style="display:block"><path fill="#FFF" d="m1151.473 873.788-59.955 106.156 388.499 464.662c40.089 57.857 106.945 95.758 182.663 95.758 83.855 0 156.855-46.474 194.65-115.07l-194.65-329.106-411.172-399.518"/><path fill="none" stroke="#121331" stroke-linecap="round" stroke-linejoin="round" stroke-width="7.754" d="m1151.473 873.788-59.955 106.156 388.499 464.662c40.089 57.857 106.945 95.758 182.663 95.758 83.855 0 156.855-46.474 194.65-115.07l-194.65-329.106-411.172-399.518"/></g><g style="display:block"><path fill="#FFF" d="M2388.174 957.046s10.412-43.814 13.822-66.046c2.372-15.466 3.32-32.473 4.49-47.56l8.292-63.482c.698-12.695 10.705-23.024 23.193-23.942 12.724-.935 23.799 8.199 25.449 20.99l4.54 49.721 23.326-52.353c13.468-31.2 50.048-44.91 80.187-31.309 31.489 14.21 43.66 53.014 26.357 84.023 0 0-52.332 77.411-83.448 176.24-37.705 24.721-126.208-46.282-126.208-46.282z"/><path fill="none" stroke="#121331" stroke-linecap="round" stroke-linejoin="round" stroke-width="7.754" d="M2388.174 957.046s10.412-43.814 13.822-66.046c2.372-15.466 3.32-32.473 4.49-47.56l8.292-63.482c.698-12.695 10.705-23.024 23.193-23.942 0 0 0 0 0 0 12.724-.935 23.799 8.199 25.449 20.99l4.54 49.721 23.326-52.353c13.468-31.2 50.048-44.91 80.187-31.309 0 0 0 0 0 0 31.489 14.21 43.66 53.014 26.357 84.023 0 0-52.332 77.411-83.448 176.24-37.705 24.721-126.208-46.282-126.208-46.282z"/><path fill="#FFF" d="m2154.472 945.316 131.296 236.791 102.937-225.854 126.535 42.707s-84.025 358.477-107.645 459.811c-23.596 101.228-156.596 123.228-209.29 36.85-27.484-45.055-176.48-338.701-176.48-338.701m300.395 90.109-36.098-65.982"/><path fill="none" stroke="#121331" stroke-linecap="round" stroke-linejoin="round" stroke-width="7.755" d="m2154.472 945.316 131.296 236.791 102.937-225.854 126.535 42.707s-84.025 358.477-107.645 459.811c-23.596 101.228-156.596 123.228-209.29 36.85-27.484-45.055-176.48-338.701-176.48-338.701m300.395 90.109-36.098-65.982"/></g><g style="display:block"><path fill="#FFF" d="m1763.418 399.79 14.426-45.423a39.566 39.566 0 0 1 8.951-12.879l85.87-66.046c10.576-7.888 13.755-22.453 7.369-33.758-6.507-11.518-20.773-15.835-32.782-9.919l-43.984 21.668 37.633-57.128c19.859-30.145 11.773-70.364-17.927-89.167-31.03-19.645-72.629-7.809-90.076 25.628 0 0-66.095 113.76-99.444 214.426 9.533 45.752 129.964 52.598 129.964 52.598z"/><path fill="none" stroke="#121331" stroke-linecap="round" stroke-linejoin="round" stroke-width="7.754" d="m1763.418 399.79 14.426-45.423a39.566 39.566 0 0 1 8.951-12.879l85.87-66.046c10.576-7.888 13.755-22.453 7.369-33.758 0 0 0 0 0 0-6.507-11.518-20.773-15.835-32.782-9.919l-43.984 21.668 37.633-57.128c19.859-30.145 11.773-70.364-17.927-89.167 0 0 0 0 0 0-31.03-19.645-72.629-7.809-90.076 25.628 0 0-66.095 113.76-99.444 214.426 9.533 45.752 129.964 52.598 129.964 52.598z"/><path fill="#FFF" d="m1876.5 774.999-180-134 71-247-130-56.5s-115.022 195.835-168.75 285c-35.25 58.5-15.75 124 27.75 154.5 43.266 30.336 215.5 150.5 215.5 150.5m-65-274.5 50-13"/><path fill="none" stroke="#121331" stroke-linecap="round" stroke-linejoin="round" stroke-width="7.755" d="m1876.5 774.999-180-134 71-247-130-56.5s-115.022 195.835-168.75 285c-35.25 58.5-15.75 124 27.75 154.5 43.266 30.336 215.5 150.5 215.5 150.5m-65-274.5 50-13"/></g><g style="display:block"><path fill="#FFF" d="M2105.264 1098.871c-91.813 141.159-226.126 334.805-309.917 397.527l-155.912-422.796s71.435-220.7 236.704-298.778l54.169 34.179c22.168 37.761 55.366 55.848 93.633 64.966l11.943 2.846 75.587 28.436c17.343 6.525 33.994 26.134 43.127 40.365"/><path fill="none" stroke="#121331" stroke-linecap="round" stroke-linejoin="round" stroke-width="7.754" d="M2105.264 1098.871c-91.813 141.159-226.126 334.805-309.917 397.527l-155.912-422.796s71.435-220.7 236.704-298.778l54.169 34.179s0 0 0 0c22.168 37.761 55.366 55.848 93.633 64.966l11.943 2.846 75.587 28.436c17.343 6.525 33.994 26.134 43.127 40.365"/><path fill="none" stroke="#121331" stroke-linecap="round" stroke-linejoin="round" stroke-width="7.754" d="m1758.207 1124.474-4.512 20.346c-.917 4.135 2.23 8.056 6.465 8.056 0 0 0 0 0 0 4.732 0 7.937-4.819 6.107-9.183l-8.06-19.219zm213.59-271.383s-134.742 59.716-213.074 271.688"/></g><path fill="#FFF" d="m-67.63-185.441-50.559 29.579L43.54 185.441l6.982-5.062 67.667-72.538L-67.63-185.441z" style="display:block" transform="translate(1746.918 1309.71)"/><path fill="#FFF" d="m53.981-49.294 12.099 8.021-103.735 88.981-28.425-23.539L53.981-49.294z" style="display:block" transform="translate(1811.177 821.269)"/><path fill="none" stroke="#121331" stroke-linecap="round" stroke-linejoin="round" stroke-width="7.754" d="M231.181 0c0 127.678-103.503 231.181-231.181 231.181-127.678 0-231.181-103.503-231.181-231.181 0-127.678 103.503-231.181 231.181-231.181 127.678 0 231.181 103.503 231.181 231.181z" style="display:block" transform="translate(2065.278 700.97)"/><path fill="none" stroke="#121331" stroke-linecap="round" stroke-linejoin="round" stroke-width="7.754" d="M-5.338 6.206 5.338-6.206" style="display:block" transform="translate(1765.102 858.788)"/><path fill="none" stroke="#121331" stroke-linecap="round" stroke-linejoin="round" stroke-width="7.754" d="m-26.057-75.175 52.114 150.35" style="display:block" transform="translate(1685.895 1204.106)"/><path fill="none" stroke="#121331" stroke-linecap="round" stroke-linejoin="round" stroke-width="7.754" d="M16.024 0C16.024 8.85 8.85 16.024 0 16.024-8.85 16.024-16.024 8.85-16.024 0c0-8.85 7.174-16.024 16.024-16.024C8.85-16.024 16.024-8.85 16.024 0z" style="display:block" transform="translate(505.424 428.642)"/><path fill="none" stroke="#121331" stroke-linecap="round" stroke-linejoin="round" stroke-width="7.754" d="M16.024 0C16.024 8.85 8.85 16.024 0 16.024-8.85 16.024-16.024 8.85-16.024 0c0-8.85 7.174-16.024 16.024-16.024C8.85-16.024 16.024-8.85 16.024 0z" style="display:block" transform="translate(2155.842 1751.658)"/><g style="mix-blend-mode:multiply;display:block"><path fill="#E7E0FD" d="M336.298 0c0 185.732-150.566 336.298-336.298 336.298S-336.298 185.732-336.298 0-185.732-336.298 0-336.298 336.298-185.732 336.298 0z" style="mix-blend-mode:multiply" transform="translate(923.316 555.994)"/></g><path fill="none" stroke="#121331" stroke-linecap="round" stroke-linejoin="round" stroke-width="7.754" d="M-190.001-449.856c14.972 19.526 33.5 36.734 55.243 50.575 93.684 59.636 211.266 103.784 271.781 200.436 173.762 285.847 49.306 499.238-88.44 646.728" style="display:block" transform="translate(1769.786 1382.6)"/><g clip-path="url(#c)" style="display:block" transform="rotate(-6 14664.669 -9962.275) scale(.75022)"><g style="display:block"><path fill="#FFF" d="M150.48 88.106c6.781 15.078 20.463 45.57 20.628 46.495l51.1 10.19c3.612.72 4.325 5.573 1.074 7.303l-43.597 23.196 16.888 49.055c1.247 3.621-2.907 6.696-6.007 4.448l-42.915-31.125-.202.116-48.908 32.134c-3.208 2.108-7.22-1.175-5.788-4.737l20.588-51.22-43.921-22.763c-3.338-1.73-2.561-6.712 1.145-7.343l53.699-9.149c.204-.915 12.762-31.345 19.021-46.488 1.313-3.176 5.785-3.246 7.195-.112z"/><path fill="none" stroke="#121331" stroke-linecap="round" stroke-linejoin="round" stroke-width="10" d="M150.48 88.106c6.781 15.078 20.463 45.57 20.628 46.495l51.1 10.19c3.612.72 4.325 5.573 1.074 7.303l-43.597 23.196 16.888 49.055c1.247 3.621-2.907 6.696-6.007 4.448l-42.915-31.125-.202.116-48.908 32.134c-3.208 2.108-7.22-1.175-5.788-4.737l20.588-51.22-43.921-22.763c-3.338-1.73-2.561-6.712 1.145-7.343l53.699-9.149c.204-.915 12.762-31.345 19.021-46.488 1.313-3.176 5.785-3.246 7.195-.112z"/></g><g opacity="0" style="display:block"><g opacity="1"><path fill="#FFF" d="M54.593 276.85c3.538-13.409 67.703-105.261 67.99-105.78l-108.51-29.55c-4.797-.592-3.618-6.255-.346-7.042l117.54 10.48 13.686-114.013c1.278-3.511 6.315-3.293 7.286.316l10.757 114.786.145.024 115.851-8.755c3.704.369 4.723 5.291 1.471 7.101l-111.332 27.494 62.221 103.305c1.582 3.618-2.346 7.172-5.79 5.238L147.24 186.49c-.464.368-75.823 87.518-87.898 94.085-2.532 1.377-5.485-.938-4.75-3.725z"/><path fill="none" stroke="#121331" stroke-linecap="round" stroke-linejoin="round" stroke-width="10" d="M54.593 276.85c3.538-13.409 67.703-105.261 67.99-105.78l-108.51-29.55c-4.797-.592-3.618-6.255-.346-7.042l117.54 10.48 13.686-114.013c1.278-3.511 6.315-3.293 7.286.316l10.757 114.786.145.024 115.851-8.755c3.704.369 4.723 5.291 1.471 7.101l-111.332 27.494 62.221 103.305c1.582 3.618-2.346 7.172-5.79 5.238L147.24 186.49c-.464.368-75.823 87.518-87.898 94.085-2.532 1.377-5.485-.938-4.75-3.725z"/></g></g><g style="display:none"><path/><path fill="none"/></g><g style="display:none"><path/><path fill="none"/></g><g style="display:none"><path/><path fill="none"/></g><g style="display:none"><path/><path fill="none"/></g><g style="display:none"><path/><path fill="none"/></g><g style="display:none"><path/><path fill="none"/></g><g style="display:none"><path/><path fill="none"/></g><g style="display:none"><path/><path fill="none"/></g><g style="display:none"><path/><path fill="none"/></g><g style="display:none"><path/><path fill="none"/></g><g style="display:none"><path/><path fill="none"/></g><g style="display:none"><path/><path fill="none"/></g><g style="display:none"><path/><path fill="none"/></g><g style="display:none"><path/><path fill="none"/></g></g><g clip-path="url(#d)" style="display:none"><g style="display:none"><path/><path fill="none"/></g><g style="display:none"><path/><path fill="none"/></g><g style="display:none"><path/><path fill="none"/></g><g style="display:none"><path/><path fill="none"/></g><g style="display:none"><path/><path fill="none"/></g><g style="display:none"><path/><path fill="none"/></g><g style="display:none"><path/><path fill="none"/></g><g style="display:none"><path/><path fill="none"/></g><g style="display:none"><path/><path fill="none"/></g><g style="display:none"><path/><path fill="none"/></g><g style="display:none"><path/><path fill="none"/></g><g style="display:none"><path/><path fill="none"/></g><g style="display:none"><path/><path fill="none"/></g><g style="display:none"><path/><path fill="none"/></g><g style="display:none"><path/><path fill="none"/></g><g style="display:none"><path/><path fill="none"/></g></g><g clip-path="url(#e)" style="display:block" transform="rotate(3 -949.252 42044.501) scale(.69631)"><g style="display:none"><path/><path fill="none"/></g><g style="display:none"><path/><path fill="none"/></g><g style="display:block"><path fill="#FFF" d="M150.48 88.106c6.781 15.078 20.463 45.57 20.628 46.495l51.1 10.19c3.612.72 4.325 5.573 1.074 7.303l-43.597 23.196 16.888 49.055c1.247 3.621-2.907 6.696-6.007 4.448l-42.915-31.125-.202.116-48.908 32.134c-3.208 2.108-7.22-1.175-5.788-4.737l20.588-51.22-43.921-22.763c-3.338-1.73-2.561-6.712 1.145-7.343l53.699-9.149c.204-.915 12.762-31.345 19.021-46.488 1.313-3.176 5.785-3.246 7.195-.112z"/><path fill="none" stroke="#121331" stroke-linecap="round" stroke-linejoin="round" stroke-width="10" d="M150.48 88.106c6.781 15.078 20.463 45.57 20.628 46.495l51.1 10.19c3.612.72 4.325 5.573 1.074 7.303l-43.597 23.196 16.888 49.055c1.247 3.621-2.907 6.696-6.007 4.448l-42.915-31.125-.202.116-48.908 32.134c-3.208 2.108-7.22-1.175-5.788-4.737l20.588-51.22-43.921-22.763c-3.338-1.73-2.561-6.712 1.145-7.343l53.699-9.149c.204-.915 12.762-31.345 19.021-46.488 1.313-3.176 5.785-3.246 7.195-.112z"/></g><g style="display:none"><path/><path fill="none"/></g><g style="display:none"><path/><path fill="none"/></g><g style="display:none"><path/><path fill="none"/></g><g style="display:none"><path/><path fill="none"/></g><g style="display:none"><path/><path fill="none"/></g><g style="display:none"><path/><path fill="none"/></g><g style="display:none"><path/><path fill="none"/></g><g style="display:none"><path/><path fill="none"/></g><g style="display:none"><path/><path fill="none"/></g><g style="display:none"><path/><path fill="none"/></g><g style="display:none"><path/><path fill="none"/></g><g style="display:none"><path/><path fill="none"/></g><g style="display:none"><path/><path fill="none"/></g></g><g style="display:block"><path fill="#FFF" d="m2748.937 1669.896-56.191 139.077c-5.169 12.793-19.752 18.984-32.545 13.815l-139.077-56.191c-12.793-5.169-18.983-19.752-13.815-32.545l56.191-139.077c5.169-12.793 19.752-18.984 32.545-13.815l139.078 56.191c12.792 5.169 18.983 19.752 13.814 32.545z"/><path fill="none" stroke="#121331" stroke-linecap="round" stroke-linejoin="round" stroke-width="7.754" d="m2748.937 1669.896-56.191 139.077c-5.169 12.793-19.752 18.984-32.545 13.815l-139.077-56.191c-12.793-5.169-18.983-19.752-13.815-32.545l56.191-139.077c5.169-12.793 19.752-18.984 32.545-13.815l139.078 56.191c12.792 5.169 18.983 19.752 13.814 32.545z"/><path fill="none" stroke="#121331" stroke-linecap="round" stroke-linejoin="round" stroke-width="10" d="m2598.353 1753.987.064-.158"/><path fill="none" stroke="#121331" stroke-linecap="round" stroke-linejoin="round" stroke-width="7.754" d="M2623.966 1646.509s10.248-7.13 25.102-1.128c12.676 5.122 20.959 20.91 14.723 36.343-7.247 17.937-27.495 18.65-39.048 23.866-11.217 5.066-14.863 17.534-15.342 19.357"/></g></g></svg>