<svg xmlns="http://www.w3.org/2000/svg" width="500" height="500" style="width:100%;height:100%;transform:translate3d(0,0,0);content-visibility:visible" viewBox="0 0 500 500"><defs><clipPath id="c"><path d="M0 0h500v500H0z"/></clipPath><filter id="a" width="100%" height="100%" x="0%" y="0%" filterUnits="objectBoundingBox"><feComponentTransfer in="SourceGraphic"><feFuncA tableValues="1.0 0.0" type="table"/></feComponentTransfer></filter><mask id="d" mask-type="alpha"><g filter="url(#a)"><path fill="#fff" d="M0 0h500v500H0z" opacity="0"/><use xmlns:ns1="http://www.w3.org/1999/xlink" ns1:href="#b"/></g></mask><g id="b" class="design-3" style="display:block"><path fill="#fff" d="M568.987-131.589V74.297H-80.321v-205.886h649.308z"/><path fill-opacity="0" stroke="#fff" stroke-width="0" d="M568.987-131.589V74.297H-80.321v-205.886h649.308z"/></g></defs><g clip-path="url(#c)"><path fill="#fff" d="m176.733-100.396-76.338-76.337c-6.863-6.862-15.986-10.642-25.691-10.642h-225.746c-20.034 0-36.333 16.298-36.333 36.333v302.084c0 20.034 16.299 36.333 36.333 36.333h302.084c20.034 0 36.333-16.299 36.333-36.333V-74.704c0-9.704-3.779-18.829-10.642-25.692zM52.207-156.375l-.004 57.416a5.34 5.34 0 0 1-5.332 5.334H-78.12a5.34 5.34 0 0 1-5.333-5.334l-.004-57.416H52.207zm31.251 312.75H-83.458V26.041a5.34 5.34 0 0 1 5.333-5.333h156.25a5.34 5.34 0 0 1 5.333 5.333v130.334zm72.917-5.333a5.34 5.34 0 0 1-5.333 5.333h-36.584V26.041c0-20.034-16.299-36.333-36.333-36.333h-156.25c-20.034 0-36.333 16.299-36.333 36.333v130.334h-36.584a5.34 5.34 0 0 1-5.333-5.333v-302.084a5.34 5.34 0 0 1 5.333-5.333h36.585l.004 57.418c.001 20.033 16.3 36.332 36.333 36.332H46.871c20.033 0 36.331-16.299 36.332-36.332l.004-51.124 71.606 71.605a5.3 5.3 0 0 1 1.562 3.772v225.746z" class="design-5" style="display:block" transform="translate(250 250)"/><g mask="url(#d)" style="display:none"><path class="design-4"/></g><path class="design-2" style="display:none"/><path class="design-1" style="display:none"/><path style="display:none"/></g></svg>