<svg xmlns="http://www.w3.org/2000/svg" width="500" height="500" style="width:100%;height:100%;transform:translate3d(0,0,0);content-visibility:visible" viewBox="0 0 500 500" fill="#fff"><defs><clipPath id="a"><path d="M0 0h500v500H0z"/></clipPath></defs><g clip-path="url(#a)"><g style="display:block"><path d="M421.85 83.362H265.623V57.324c0-8.54-7.082-15.622-15.622-15.622s-15.623 7.082-15.623 15.622v26.038H78.154c-8.54 0-15.622 7.082-15.622 15.622s7.082 15.623 15.622 15.623h12.082l31.87 292.661c3.124 29.162 27.704 51.034 56.866 51.034h142.06c29.37 0 53.742-21.872 56.866-51.034l31.87-292.661h12.081c8.54 0 15.623-7.082 15.623-15.623 0-8.54-7.082-15.622-15.623-15.622zm-74.99 320.574c-1.458 13.123-12.498 23.12-25.829 23.12h-142.06c-13.332 0-24.371-9.997-25.83-23.12l-22.496-206.01h238.712l-22.497 206.01zm25.83-237.254H127.313l-5.624-52.075h256.834l-5.832 52.075z"/><path d="M286.246 250.419c-8.54 0-15.622 7.082-15.622 15.622v93.735c0 8.54 7.082 15.623 15.622 15.623s15.623-7.083 15.623-15.623v-93.735c0-8.54-6.874-15.622-15.623-15.622zm-72.696-.417c-8.54 0-15.623 7.082-15.623 15.622v93.735c0 8.54 7.082 15.623 15.622 15.623s15.623-7.082 15.623-15.623v-93.735c0-8.54-7.082-15.622-15.623-15.622z"/></g><g style="display:none"><path/><path/><path/></g><g fill="none" style="display:none"><path/><path/></g><g fill="none" style="display:none"><path/><path/></g><g fill="none" style="display:none"><path/><path/></g><path fill="none" style="display:none"/></g></svg>